<?xml version="1.0" encoding="iso-8859-1"?>
<!-- Generator: Adobe Illustrator 19.0.0, SVG Export Plug-In . SVG Version: 6.00 Build 0)  -->
<svg version="1.1" id="Layer_1" xmlns="http://www.w3.org/2000/svg" xmlns:xlink="http://www.w3.org/1999/xlink" x="0px" y="0px"
	 viewBox="0 0 464 464" style="enable-background:new 0 0 464 464;" xml:space="preserve">
<path style="fill:#606367;" d="M11.5,9 C13.1575,9 14.5,7.6575 14.5,6 C14.5,4.3425 13.1575,3 11.5,3 C9.8425,3 8.5,4.3425 8.5,6 C8.5,7.6575 9.8425,9 11.5,9 Z M4,7 L4,5 L3,5 L3,7 L1,7 L1,8 L3,8 L3,10 L4,10 L4,8 L6,8 L6,7 L4,7 Z M11.5,10 C9.4975,10 6,11.005 6,13 L6,15 L17,15 L17,13 C17,11.005 13.5025,10 11.5,10 Z"/>
<g>
</g>
<g>
</g>
<g>
</g>
<g>
</g>
<g>
</g>
<g>
</g>
<g>
</g>
<g>
</g>
<g>
</g>
<g>
</g>
<g>
</g>
<g>
</g>
<g>
</g>
<g>
</g>
<g>
</g>
</svg>
